<svg width="36" height="44" viewBox="0 0 36 44" fill="none" xmlns="http://www.w3.org/2000/svg">
<path d="M34.4571 17.3566C33.6075 17.3566 32.9366 19.4078 32.9143 21.9324C32.8919 16.7029 30.9019 12.4877 28.4199 12.4877C26.9888 12.4877 25.7143 13.8852 24.887 16.0943C24.6857 16.6578 23.8807 16.5902 23.7466 16.0266L23.0534 13.1189C21.9801 8.45287 20.1242 5.34221 17.9776 5.34221C14.6683 5.34221 11.9851 12.8033 11.9851 22C11.9851 22.1578 11.9851 22.293 11.9851 22.4508C11.9851 22.293 11.9851 22.1578 11.9851 22C12.0075 9.85041 9.32422 0 5.99255 0C2.68323 0 0 9.85041 0 22C0 34.1496 2.68323 44 5.99255 44C7.33416 44 8.58634 42.377 9.57019 39.6496L9.63727 39.4693C9.70435 39.2664 9.77143 39.0635 9.86087 38.8381L11.8733 32.8873C12.1416 32.1209 13.2149 32.1209 13.4609 32.9098C14.5565 36.4262 16.1888 38.6578 18 38.6578C21.1528 38.6578 23.7242 31.918 23.9702 23.3525C24.2832 27.9508 26.1615 31.4898 28.4199 31.4898C30.0969 31.4898 31.5503 29.5512 32.3329 26.666L32.6907 25.3586C32.7801 24.998 33.272 24.9754 33.4062 25.3361C33.6745 26.125 34.0547 26.6209 34.4571 26.6209C35.3068 26.6209 36 24.5471 36 21.9775C36 19.4303 35.3068 17.3566 34.4571 17.3566Z" fill="white"/>
</svg>
