<svg width="41" height="39" viewBox="0 0 41 39" fill="none" xmlns="http://www.w3.org/2000/svg">
<line x1="1" y1="1" x2="40" y2="1" stroke="white"/>
<line x1="1" y1="7" x2="40" y2="7" stroke="white"/>
<line x1="18" y1="13" x2="40" y2="13" stroke="white"/>
<path d="M11.3263 24.77V34.5H9.73032V27.836L6.76232 34.5H5.65632L2.67432 27.836V34.5H1.07832V24.77H2.80032L6.21632 32.4L9.61832 24.77H11.3263ZM15.52 26.058V28.914H18.88V30.216H15.52V33.198H19.3V34.5H13.924V24.756H19.3V26.058H15.52ZM29.7598 34.5H28.1638L23.3618 27.234V34.5H21.7658V24.756H23.3618L28.1638 32.008V24.756H29.7598V34.5ZM33.9377 24.77V30.972C33.9377 31.7093 34.129 32.2647 34.5117 32.638C34.9037 33.0113 35.445 33.198 36.1357 33.198C36.8357 33.198 37.377 33.0113 37.7597 32.638C38.1517 32.2647 38.3477 31.7093 38.3477 30.972V24.77H39.9437V30.944C39.9437 31.7373 39.771 32.4093 39.4257 32.96C39.0803 33.5107 38.6183 33.9213 38.0397 34.192C37.461 34.4627 36.8217 34.598 36.1217 34.598C35.4217 34.598 34.7823 34.4627 34.2037 34.192C33.6343 33.9213 33.1817 33.5107 32.8457 32.96C32.5097 32.4093 32.3417 31.7373 32.3417 30.944V24.77H33.9377Z" fill="white"/>
</svg>
