<svg width="1440" height="1182" viewBox="0 0 1440 1182" fill="none" xmlns="http://www.w3.org/2000/svg">
<path d="M950.552 968.647C1057.15 938.68 1130.06 866.329 1113.4 807.047C1096.73 747.765 996.804 724.001 890.203 753.968C783.602 783.936 710.694 856.286 727.359 915.568C744.024 974.85 843.951 998.614 950.552 968.647Z" stroke="white" stroke-opacity="0.5" stroke-width="0.4" stroke-miterlimit="10"/>
<path d="M952.477 968.106C1086.19 930.516 1177.69 839.918 1156.84 765.749C1135.99 691.58 1010.69 661.927 876.973 699.517C743.256 737.107 651.76 827.705 672.61 901.874C693.46 976.043 818.761 1005.7 952.477 968.106Z" stroke="white" stroke-opacity="0.5" stroke-width="0.4" stroke-miterlimit="10"/>
<path d="M989.7 1130.08C1399.89 1014.77 1674.43 715.052 1602.92 460.645C1531.4 206.238 1140.9 93.4775 730.711 208.788C320.523 324.098 45.9766 623.813 117.494 878.22C189.012 1132.63 579.512 1245.39 989.7 1130.08Z" stroke="white" stroke-opacity="0.5" stroke-width="0.4" stroke-miterlimit="10"/>
<path d="M960.204 1008.52C1143.1 957.108 1266.77 827.933 1236.43 720.003C1206.09 612.073 1033.23 566.258 850.33 617.673C667.433 669.089 543.762 798.263 574.103 906.194C604.444 1014.12 777.307 1059.94 960.204 1008.52Z" stroke="white" stroke-opacity="0.5" stroke-width="0.4" stroke-miterlimit="10"/>
<path d="M970.878 1050.19C1229.27 977.551 1402.94 791.302 1358.77 634.192C1314.61 477.082 1069.33 408.604 810.938 481.243C552.543 553.882 378.877 740.13 423.043 897.24C467.209 1054.35 712.483 1122.83 970.878 1050.19Z" stroke="white" stroke-opacity="0.5" stroke-width="0.4" stroke-miterlimit="10"/>
<path d="M980.049 1090.2C1314.47 996.189 1538.63 752.961 1480.71 546.937C1422.79 340.913 1104.74 250.108 770.314 344.12C435.89 438.132 211.736 681.36 269.653 887.384C327.569 1093.41 645.624 1184.21 980.049 1090.2Z" stroke="white" stroke-opacity="0.5" stroke-width="0.4" stroke-miterlimit="10"/>
<path d="M989.7 1130.08C1399.89 1014.77 1674.43 715.052 1602.92 460.645C1531.4 206.238 1140.9 93.4775 730.711 208.788C320.523 324.098 45.9766 623.813 117.494 878.22C189.012 1132.63 579.512 1245.39 989.7 1130.08Z" stroke="white" stroke-opacity="0.5" stroke-width="0.4" stroke-miterlimit="10"/>
<path d="M950.552 968.647C1057.15 938.68 1130.06 866.329 1113.4 807.047C1096.73 747.765 996.804 724.001 890.203 753.968C783.602 783.936 710.694 856.286 727.359 915.568C744.024 974.85 843.951 998.614 950.552 968.647Z" stroke="white" stroke-opacity="0.5" stroke-width="0.4" stroke-miterlimit="10"/>
<path d="M814.938 977.685C806.927 969.768 801.215 960.28 798.245 949.714C784.437 900.594 835.556 843.082 912.305 821.507C989.054 799.931 1062.65 822.383 1076.46 871.503C1079.03 880.641 1079.26 890.129 1077.72 899.807" stroke="white" stroke-opacity="0.5" stroke-width="0.4" stroke-miterlimit="10"/>
<path d="M840.602 980.858C838.069 977.269 836.021 973.237 834.901 969.252C825.457 935.659 865.795 894.83 925.114 878.154C984.433 861.479 1040.14 875.309 1049.58 908.902C1050.78 913.173 1051.05 917.396 1050.76 921.779" stroke="white" stroke-opacity="0.5" stroke-width="0.4" stroke-miterlimit="10"/>
<path d="M877.359 979.874C871.072 957.507 897.692 930.53 936.75 919.55C975.809 908.57 1012.59 917.725 1018.87 940.092" stroke="white" stroke-opacity="0.5" stroke-width="0.4" stroke-miterlimit="10"/>
<path d="M521.927 288.256C596.267 375.436 784.001 619.115 899.2 979.967" stroke="white" stroke-opacity="0.5" stroke-width="0.4" stroke-miterlimit="10"/>
<path d="M966.536 166.385C948.808 282.272 918.253 585.381 1007.02 949.657" stroke="white" stroke-opacity="0.5" stroke-width="0.4" stroke-miterlimit="10"/>
<path d="M823.932 978.273C823.932 978.273 703.606 679.448 237.798 496.935" stroke="white" stroke-opacity="0.5" stroke-width="0.4" stroke-miterlimit="10"/>
<path d="M1065.57 910.346C1065.57 910.346 1013.02 595.589 1308.42 200.121" stroke="white" stroke-opacity="0.5" stroke-width="0.4" stroke-miterlimit="10"/>
<path d="M1455.02 869.421C1455.02 869.421 1257.88 757.545 1109.81 882.97" stroke="white" stroke-opacity="0.5" stroke-width="0.4" stroke-miterlimit="10"/>
<path d="M1596.02 436.096C1596.02 436.096 1252.07 558.791 1105.04 866.009" stroke="white" stroke-opacity="0.5" stroke-width="0.4" stroke-miterlimit="10"/>
<path d="M1161.87 1068.17C1161.87 1068.17 1124.53 960.299 1041.71 932.634" stroke="white" stroke-opacity="0.5" stroke-width="0.4" stroke-miterlimit="10"/>
<path d="M473.356 1146.42C473.356 1146.42 583.787 948.081 776.027 977.84" stroke="white" stroke-opacity="0.5" stroke-width="0.4" stroke-miterlimit="10"/>
<path d="M111.135 855.596C111.135 855.596 485.587 776.154 770.989 959.916" stroke="white" stroke-opacity="0.5" stroke-width="0.4" stroke-miterlimit="10"/>
<path d="M828.091 1163.04C828.091 1163.04 803.754 1051.51 860.031 984.745" stroke="white" stroke-opacity="0.5" stroke-width="0.4" stroke-miterlimit="10"/>
</svg>
