<svg width="163" height="58" viewBox="0 0 163 58" fill="none" xmlns="http://www.w3.org/2000/svg">
<path d="M45.7879 22.8791C44.6588 22.8791 43.7674 25.583 43.7377 28.9109C43.708 22.0174 41.0635 16.4611 37.7654 16.4611C35.8637 16.4611 34.1701 18.3033 33.0707 21.2152C32.8033 21.958 31.7336 21.8689 31.5553 21.126L30.6342 17.293C29.208 11.1424 26.7418 7.04201 23.8893 7.04201C19.4918 7.04201 15.9262 16.877 15.9262 29C15.9262 29.208 15.9262 29.3863 15.9262 29.5943C15.9262 29.3863 15.9262 29.208 15.9262 29C15.9559 12.9846 12.3904 0 7.96311 0C3.56557 0 0 12.9846 0 29C0 45.0154 3.56557 58 7.96311 58C9.7459 58 11.4098 55.8607 12.7172 52.2654L12.8064 52.0277C12.8955 51.7603 12.9846 51.4928 13.1035 51.1957L15.7777 43.3514C16.1342 42.3412 17.5605 42.3412 17.8873 43.3811C19.3432 48.0164 21.5123 50.958 23.9191 50.958C28.1086 50.958 31.5256 42.0738 31.8525 30.7828C32.2684 36.8443 34.7643 41.5092 37.7654 41.5092C39.9939 41.5092 41.9252 38.9539 42.9652 35.1506L43.4406 33.4273C43.5594 32.9518 44.2131 32.9221 44.3914 33.3975C44.7479 34.4375 45.2531 35.0912 45.7879 35.0912C46.917 35.0912 47.8381 32.3576 47.8381 28.9703C47.8381 25.6127 46.917 22.8791 45.7879 22.8791Z" fill="white"/>
<path fill-rule="evenodd" clip-rule="evenodd" d="M125.42 47.3034H126.638V48.5513H125.42V47.3034ZM128.629 46.2337H130.887C130.619 46.828 130.233 47.3034 129.787 47.7194C129.282 47.3034 128.896 46.828 128.629 46.2337ZM127.589 45.4909V46.2634C127.915 46.9468 128.658 47.7194 129.163 48.2245C128.629 48.581 128.005 48.8187 127.351 48.997V46.6497H124.736V49.621H125.449V49.2347H127.381V49.1159C127.403 49.1544 127.426 49.194 127.449 49.234C127.552 49.4099 127.659 49.5946 127.708 49.7399C128.48 49.5021 129.193 49.205 129.817 48.7593C130.411 49.205 131.125 49.5021 131.927 49.7101C132.046 49.4724 132.283 49.1456 132.432 48.9673C131.689 48.8187 131.035 48.5513 130.471 48.2245C131.125 47.5708 131.689 46.5606 131.986 45.4909H127.589ZM124.706 46.1149H127.351V45.4612H124.706V46.1149ZM128.391 41.9847V42.9355C128.391 43.5298 128.242 44.1835 127.321 44.6886V44.3024H124.706V44.956H127.321V44.7481C127.47 44.8966 127.708 45.164 127.826 45.3423C128.896 44.7183 129.134 43.7675 129.134 42.9653V42.7573H130.411V43.9458C130.411 44.6886 130.56 44.9858 131.243 44.9858H131.748H132.194V44.2726H131.748H131.303C131.184 44.2726 131.184 44.1835 131.184 43.9458V41.955H128.391V41.9847ZM125.241 41.955C125.479 42.3116 125.746 42.8167 125.865 43.1435H124.32V43.7972H127.678V43.1435H125.895L126.549 42.787C126.451 42.5178 126.232 42.168 126.025 41.8371C125.981 41.7663 125.937 41.6963 125.895 41.6282L125.241 41.955ZM67.0333 44.5403V43.9163H71.52L71.9954 44.2728C71.4903 44.778 70.8069 45.3128 70.0937 45.7288C70.3017 45.8179 70.5988 45.9962 70.7474 46.0853L70.7474 46.0853H72.0251H72.7976C72.4114 46.739 71.8765 47.6304 71.4606 48.0761L70.8069 47.779C71.0149 47.5116 71.2823 47.155 71.52 46.7985H69.9155V48.8487C69.9155 49.2944 69.8263 49.5023 69.4698 49.6212C69.1733 49.72 68.5686 49.7161 67.9292 49.712C67.7996 49.7112 67.6686 49.7103 67.5384 49.7103V48.9972H68.9052C69.0835 48.9972 69.1132 48.9378 69.1132 48.8189V46.7687H67.0036V46.0853H69.3212C68.8161 45.8179 68.2218 45.5208 67.7167 45.3128L68.2218 44.8374L68.383 44.9042C68.7076 45.0385 69.0847 45.1945 69.4401 45.3722C69.8263 45.1345 70.2423 44.8374 70.5989 44.5403H67.0333ZM68.7269 42.2226L68.7269 42.2226C68.6675 42.0889 68.6081 41.9552 68.5487 41.8364L69.3509 41.6581C69.5103 41.9237 69.6696 42.2843 69.7866 42.5488L69.8263 42.6386H72.7976V43.3814H66.3202V45.0157C66.3202 46.3825 66.2013 48.4327 65.4288 49.7698H64.6562C65.3694 48.5218 65.5179 46.2933 65.5179 45.0157V42.6089H68.9052C68.8458 42.49 68.7864 42.3563 68.7269 42.2226ZM98.8268 49.0563C100.075 48.5512 101.263 47.6004 101.887 46.5307H102.868C102.125 47.749 100.728 49.0563 99.4211 49.71C99.2725 49.502 99.0348 49.2346 98.8268 49.0563ZM99.2725 46.1444C100.134 45.6988 101.174 44.9262 101.709 44.1834H102.749C102.066 45.0451 100.788 46.2039 99.8668 46.7387C99.7182 46.5604 99.4805 46.293 99.2725 46.1444ZM97.6086 42.9354H96.3903V45.0451H97.6086V42.9354ZM94.6967 42.9354V42.1926H99.2131V42.9354H98.4405V45.0451H99.3319V45.8176H98.4405V49.7397H97.6383V45.8176H96.3903C96.3606 47.2735 95.9743 48.7295 95.2315 49.7397H94.251C95.1721 48.7592 95.6178 47.0358 95.6475 45.8176H94.5778V45.0451H95.6475V42.9354H94.6967ZM99.1833 43.6485C100.015 43.2326 100.996 42.4897 101.501 41.8063V41.836H102.482C101.828 42.7274 100.669 43.7377 99.7776 44.2428C99.629 44.0348 99.3913 43.7971 99.1833 43.6485ZM156.797 47.3034H155.371V48.5513H156.797V47.3034ZM154.658 49.621V46.6497H157.51V49.2347H155.371V49.621H154.658ZM157.451 46.0851H154.598V45.4612H157.451V46.0851ZM157.48 44.956H154.598V44.3024H157.48V44.956ZM159.471 44.6292V41.8362H160.303V44.6292H162.027V45.4314H160.303V49.7399H159.471V45.4314H157.837V44.6292H159.471ZM155.846 43.1435C155.727 42.8167 155.46 42.3116 155.222 41.955L155.846 41.6282C155.888 41.6963 155.932 41.7663 155.976 41.8371C156.183 42.168 156.402 42.5178 156.5 42.787L155.846 43.1435ZM154.212 43.1435H155.846H157.837V43.7972H154.212V43.1435Z" fill="white"/>
<path d="M103.67 18.8679C99.1532 18.8679 95.4688 22.5523 95.4688 27.0687C95.4688 31.5851 99.1532 35.2696 103.67 35.2696H111.87V27.0687C111.87 22.5523 108.186 18.8679 103.67 18.8679ZM108.245 31.6446H103.67C101.144 31.6446 99.0938 29.5944 99.0938 27.0687C99.0938 24.5431 101.144 22.4929 103.67 22.4929C106.195 22.4929 108.245 24.5431 108.245 27.0687V31.6446Z" fill="white"/>
<path d="M148.981 26.7121C148.981 24.0082 151.18 21.8391 153.854 21.8391C156.558 21.8391 158.727 24.0379 158.727 26.7121V31.585H153.854C151.18 31.585 148.981 29.416 148.981 26.7121ZM145.356 26.7121C145.356 31.4067 149.16 35.21 153.854 35.21H162.352V26.7121C162.352 22.0174 158.549 18.2141 153.854 18.2141C149.16 18.2141 145.356 22.0471 145.356 26.7121Z" fill="white"/>
<path d="M81.7705 28.9109V35.1506H85.3955V28.9109C85.3955 25.5236 88.1588 22.7603 91.5461 22.7603V19.1353C86.168 19.1353 81.7705 23.5328 81.7705 28.9109Z" fill="white"/>
<path d="M127.737 33.9027L125.716 30.9017C125.033 31.3771 124.231 31.6148 123.399 31.6148C121.111 31.6148 119.269 29.7726 119.269 27.4847C119.269 25.1968 121.111 23.3546 123.399 23.3546C124.112 23.3546 124.795 23.5328 125.419 23.8894L127.172 20.7398C126.013 20.0861 124.706 19.7593 123.399 19.7593C119.12 19.7593 115.644 23.2357 115.644 27.5144C115.644 31.7931 119.12 35.2695 123.399 35.2695C124.973 35.2101 126.459 34.7644 127.737 33.9027Z" fill="white"/>
<path d="M141.435 22.8791V19.2541H135.284V14.5H131.659V25.5236C131.659 30.9016 136.057 35.2992 141.435 35.2992V31.6742C138.047 31.6742 135.284 28.9109 135.284 25.5236V22.8791H141.435Z" fill="white"/>
<path d="M72.7678 18.5112H78.235V14.8862H72.7678C68.3703 14.8862 64.8047 18.4518 64.8047 22.8493V35.1209H68.4297V27.4252H76.6008V23.8002H68.4297V22.8493C68.4297 20.4723 70.3907 18.5112 72.7678 18.5112Z" fill="white"/>
</svg>
